<svg width="201" height="25" viewBox="0 0 201 25" fill="none" xmlns="http://www.w3.org/2000/svg">
<path d="M43.66 5.34782H31.8965V6.66222H43.66V5.34782Z" fill="white"/>
<path d="M72.4452 5.34782H63.1036V6.66222H72.4452V5.34782Z" fill="white"/>
<path d="M37.0864 11.8524V19.8789H38.4008V11.8524H37.0864Z" fill="white"/>
<path d="M72.0302 11.7827H63.1036V11.8514V13.0971V19.8786H64.4187V13.0971H72.0302V11.7827Z" fill="white"/>
<path d="M74.867 19.8783L85.2508 5.34782H86.6804L76.2966 19.8783H74.867Z" fill="white"/>
<path d="M80.4387 10.0914L77.0493 5.34782H75.619L79.7239 11.0918L80.4387 10.0914Z" fill="white"/>
<path d="M81.8604 14.0805L86.003 19.8777H87.4326L82.5752 13.0807L81.8604 14.0805Z" fill="white"/>
<path d="M59.8783 11.8364L59.2181 11.8519H50.3716V13.1656H58.5841C58.4585 14.6851 57.7886 16.1082 56.6974 17.1732C55.6062 18.2381 54.1673 18.8733 52.6452 18.9619C51.123 19.0505 49.6201 18.5865 48.4128 17.6553C47.2054 16.7242 46.3749 15.3884 46.0739 13.8937C45.7729 12.399 46.0217 10.8459 46.7745 9.51997C47.5274 8.19408 48.7336 7.18457 50.1714 6.67712C51.6091 6.16966 53.1818 6.19839 54.6001 6.758C56.0184 7.31761 57.187 8.37049 57.8909 9.72299L59.0564 9.11665C58.1929 7.45822 56.7518 6.17356 55.0055 5.50548C53.2592 4.8374 51.3287 4.83219 49.5788 5.49083C47.8289 6.14948 46.3809 7.42634 45.5085 9.08008C44.6361 10.7338 44.3997 12.6499 44.844 14.466C45.2884 16.2822 46.3827 17.8727 47.92 18.9369C49.4574 20.001 51.3313 20.4652 53.1877 20.2415C55.044 20.0178 56.7541 19.1219 57.9947 17.723C59.2353 16.3242 59.9205 14.5193 59.9207 12.6496C59.9229 12.3779 59.9087 12.1064 59.8783 11.8364Z" fill="white"/>
<path d="M43.66 5.34782H31.8965V6.66222H43.66V5.34782Z" fill="white"/>
<path d="M72.4452 5.34782H63.1036V6.66222H72.4452V5.34782Z" fill="white"/>
<path d="M37.0864 11.8524V19.8789H38.4008V11.8524H37.0864Z" fill="white"/>
<path d="M72.0302 11.7827H63.1036V11.8514V13.0971V19.8786H64.4187V13.0971H72.0302V11.7827Z" fill="white"/>
<path d="M74.867 19.8783L85.2508 5.34782H86.6804L76.2966 19.8783H74.867Z" fill="white"/>
<path d="M80.4387 10.0914L77.0493 5.34782H75.619L79.7239 11.0918L80.4387 10.0914Z" fill="white"/>
<path d="M81.8604 14.0805L86.003 19.8777H87.4326L82.5752 13.0807L81.8604 14.0805Z" fill="white"/>
<path d="M59.8783 11.8364L59.2181 11.8519H50.3716V13.1656H58.5841C58.4585 14.6851 57.7886 16.1082 56.6974 17.1732C55.6062 18.2381 54.1673 18.8733 52.6452 18.9619C51.123 19.0505 49.6201 18.5865 48.4128 17.6553C47.2054 16.7242 46.3749 15.3884 46.0739 13.8937C45.7729 12.399 46.0217 10.8459 46.7745 9.51997C47.5274 8.19408 48.7336 7.18457 50.1714 6.67712C51.6091 6.16966 53.1818 6.19839 54.6001 6.758C56.0184 7.31761 57.187 8.37049 57.8909 9.72299L59.0564 9.11665C58.1929 7.45822 56.7518 6.17356 55.0055 5.50548C53.2592 4.8374 51.3287 4.83219 49.5788 5.49083C47.8289 6.14948 46.3809 7.42634 45.5085 9.08008C44.6361 10.7338 44.3997 12.6499 44.844 14.466C45.2884 16.2822 46.3827 17.8727 47.92 18.9369C49.4574 20.001 51.3313 20.4652 53.1877 20.2415C55.044 20.0178 56.7541 19.1219 57.9947 17.723C59.2353 16.3242 59.9205 14.5193 59.9207 12.6496C59.9229 12.3779 59.9087 12.1064 59.8783 11.8364Z" fill="white"/>
<path d="M12.3655 24.731C19.1948 24.731 24.731 19.1948 24.731 12.3655C24.731 5.53623 19.1948 0 12.3655 0C5.53623 0 0 5.53623 0 12.3655C0 19.1948 5.53623 24.731 12.3655 24.731Z" fill="white"/>
<path d="M2.33549 15.8445C8.37823 10.9375 14.9876 12.6347 16.4989 13.2817C17.4744 13.6991 18.2 14.5248 17.6308 16.7885C17.3102 18.0716 15.9297 20.5656 13.2878 21.1322C17.2533 20.7547 19.765 17.1497 20.1281 15.6148C20.6515 13.3903 24.157 13.0259 22.9185 12.4456C16.8758 9.61328 8.00138 10.3683 2.33549 15.8445Z" fill="#0066FF"/>
<path d="M8.00871 9.33912L8.12582 9.15723L8.26191 8.99039C8.61351 8.52904 9.0148 8.10778 9.45855 7.73422C10.436 6.88564 11.6137 6.31447 12.8529 5.96117C14.7502 5.46262 16.7457 5.61572 18.6103 6.19278C16.552 3.81651 12.8319 3.04317 9.84326 3.99905C7.62597 4.64415 5.60757 6.22353 4.3913 8.21902C3.55254 9.55568 3.14821 11.1553 3.14821 12.7282C3.14821 12.967 3.16653 13.2058 3.18943 13.4433C4.39543 12.6359 5.68855 11.967 7.04433 11.4491C7.22091 10.6882 7.54888 9.97059 8.00871 9.33912Z" fill="#0066FF"/>
<path d="M6.23318 19.1663C7.25579 20.0018 8.51263 20.6109 9.83161 20.7706C12.484 21.1756 15.4582 19.5752 16.21 17.0609C15.6755 17.5215 15.0725 17.8959 14.4226 18.1705C12.0672 19.1323 9.61898 18.4322 8.15736 16.4695C7.74196 15.9392 7.42043 15.3417 7.20672 14.703C6.09899 15.17 5.03731 15.7395 4.03552 16.404C4.55509 17.4758 5.30562 18.4192 6.23318 19.1663Z" fill="#0066FF"/>
<path d="M193.728 4.9508V14.2595H193.759L199.36 8.70907L199.375 8.69442H200.68L200.594 8.78036L195.764 13.5759L200.832 19.9458L200.897 20.0268H199.628L199.612 20.0083L195.042 14.2312L193.728 15.497V20.0268H192.735V4.9508H193.728Z" fill="white" stroke="white" stroke-width="0.1"/>
<path d="M190.438 9.55194L190.385 9.54706C190.325 9.54212 190.254 9.53535 190.171 9.52557L190.167 9.52459C190.093 9.51079 189.999 9.50408 189.884 9.50408C189.344 9.50412 188.858 9.60494 188.424 9.80686L188.241 9.89964C187.766 10.1635 187.392 10.5275 187.119 10.9925C186.846 11.452 186.709 11.9802 186.709 12.5767V20.0268H185.717V8.69442H186.687V10.4466C186.937 9.87656 187.35 9.41866 187.927 9.07434C188.516 8.71818 189.186 8.54108 189.935 8.54108H190.169C190.248 8.54108 190.323 8.54294 190.393 8.54791L190.438 8.55182V9.55194Z" fill="white" stroke="white" stroke-width="0.1"/>
<path d="M176.213 14.0422C176.757 13.8705 177.406 13.7386 178.159 13.6457C178.729 13.5775 179.239 13.5117 179.687 13.4484L180.001 13.3908C180.298 13.3266 180.538 13.2428 180.723 13.1398C180.846 13.0726 180.935 12.9891 180.994 12.8907C181.054 12.7924 181.084 12.6762 181.084 12.5401V12.0723C181.084 11.2647 180.83 10.6277 180.325 10.156C179.82 9.68427 179.121 9.44597 178.224 9.44597C177.427 9.44603 176.759 9.622 176.218 9.97143C175.68 10.3173 175.305 10.7633 175.089 11.3085L175.072 11.3534L175.026 11.3368L174.185 11.0223L174.136 11.0038L174.156 10.9569C174.373 10.4139 174.687 9.96075 175.098 9.59931C175.513 9.23907 175.987 8.97009 176.519 8.79257C177.056 8.61537 177.617 8.52691 178.202 8.52691C178.709 8.52692 179.192 8.59785 179.65 8.74081C180.114 8.88396 180.527 9.10152 180.888 9.39323L181.022 9.50653C181.326 9.78057 181.571 10.1173 181.757 10.5154C181.971 10.9672 182.077 11.5063 182.077 12.1309V20.0273H181.084V18.032C180.889 18.4332 180.629 18.8012 180.3 19.1346C180.001 19.4377 179.648 19.6873 179.24 19.8838L179.063 19.9648C178.583 20.1677 178.042 20.2686 177.441 20.2686C176.786 20.2685 176.184 20.1378 175.635 19.8759C175.091 19.6136 174.652 19.2292 174.321 18.7244C173.993 18.2177 173.831 17.6035 173.83 16.8844C173.83 16.4106 173.914 15.9909 174.083 15.6274C174.253 15.2633 174.515 14.9496 174.867 14.6868C175.219 14.4242 175.668 14.2092 176.213 14.0422ZM181.084 13.8684C181.009 13.9211 180.92 13.9721 180.816 14.0178L180.661 14.0793C180.449 14.1533 180.208 14.2198 179.939 14.2786H179.938C179.674 14.3324 179.395 14.3811 179.102 14.4251H179.101C178.813 14.4641 178.533 14.5013 178.26 14.5355H178.259C177.442 14.6327 176.779 14.7832 176.268 14.9857H176.267C175.761 15.1833 175.395 15.4417 175.164 15.7583L175.163 15.7573C174.936 16.074 174.823 16.4588 174.823 16.9127C174.823 17.6651 175.081 18.2553 175.594 18.6883C176.111 19.1233 176.754 19.3417 177.529 19.3417C178.223 19.3417 178.835 19.1735 179.367 18.8377L179.564 18.7039C180.009 18.3782 180.364 17.957 180.629 17.4391C180.932 16.8474 181.084 16.1749 181.084 15.4213V13.8684Z" fill="white" stroke="white" stroke-width="0.1"/>
<path d="M167.414 8.54889C168.513 8.54891 169.357 8.89655 169.939 9.59785L170.045 9.73067C170.559 10.4112 170.813 11.3156 170.813 12.438V20.0268H169.821V12.438C169.821 11.51 169.599 10.7866 169.16 10.262C168.724 9.73977 168.081 9.47478 167.224 9.47478C166.309 9.47483 165.612 9.76095 165.127 10.3274C164.639 10.897 164.392 11.624 164.392 12.5113V20.0268H163.401V12.3794C163.401 11.6232 163.235 10.9944 162.905 10.4905L162.753 10.2825C162.326 9.74641 161.684 9.47478 160.818 9.47478C160.304 9.47484 159.854 9.57783 159.465 9.78244L159.302 9.87718C158.933 10.1116 158.636 10.4227 158.41 10.8119L158.318 10.9828C158.088 11.4527 157.973 11.9933 157.973 12.606V20.0268H156.98V8.69539H157.95V10.3919H157.955C158.175 9.83112 158.548 9.38462 159.073 9.05383C159.609 8.71649 160.253 8.54889 161.001 8.54889C161.823 8.54896 162.49 8.74605 162.999 9.14467C163.501 9.53464 163.861 10.061 164.085 10.721H164.096C164.321 10.0687 164.715 9.54375 165.279 9.14955C165.859 8.74779 166.572 8.54889 167.414 8.54889Z" fill="white" stroke="white" stroke-width="0.1"/>
<path d="M146.128 4.9508V10.472H146.135C146.403 9.89122 146.824 9.42739 147.398 9.08216L147.623 8.95714C148.164 8.68422 148.793 8.54889 149.507 8.54889C150.27 8.54889 150.944 8.71076 151.528 9.03723C152.112 9.35874 152.566 9.82163 152.892 10.4241C153.224 11.0228 153.389 11.7385 153.389 12.5689V20.0268H152.404V12.606C152.404 11.6563 152.123 10.8994 151.563 10.3304C151.004 9.76129 150.264 9.47483 149.339 9.47478C148.718 9.47478 148.166 9.60984 147.682 9.87815C147.258 10.1131 146.913 10.4301 146.647 10.8304L146.538 11.0072C146.265 11.486 146.128 12.0479 146.128 12.6939V20.0268H145.136V4.9508H146.128Z" fill="white" stroke="white" stroke-width="0.1"/>
<path d="M137.968 8.52691C138.687 8.52697 139.343 8.67419 139.935 8.97033L140.154 9.08753C140.654 9.37192 141.075 9.74473 141.416 10.2068L141.557 10.409C141.872 10.8897 142.076 11.435 142.171 12.043L142.18 12.1006H141.174L141.166 12.0596C141.022 11.3103 140.662 10.6917 140.085 10.2019L140.085 10.2009C139.515 9.70776 138.812 9.46062 137.975 9.46062C137.225 9.46064 136.558 9.672 135.972 10.0945H135.971C135.384 10.5128 134.922 11.0932 134.584 11.8369C134.246 12.5752 134.076 13.4237 134.076 14.3831C134.076 15.3278 134.241 16.1741 134.569 16.9225C134.898 17.666 135.356 18.2534 135.942 18.6864C136.528 19.1184 137.205 19.3349 137.975 19.3349C138.519 19.3349 139.013 19.2264 139.459 19.0106C139.91 18.7947 140.287 18.4878 140.589 18.0896C140.891 17.6918 141.091 17.226 141.187 16.692L141.195 16.6509H142.202L142.192 16.7086C142.084 17.4079 141.838 18.0251 141.453 18.5584C141.068 19.0915 140.576 19.5086 139.979 19.8095C139.381 20.1108 138.713 20.2608 137.975 20.2608C137.01 20.2607 136.159 20.0073 135.424 19.499C134.781 19.0505 134.261 18.459 133.865 17.7253L133.703 17.402C133.295 16.5171 133.091 15.5153 133.091 14.3977C133.091 13.28 133.298 12.2776 133.711 11.3925C134.124 10.5081 134.697 9.80894 135.431 9.29654C136.166 8.78326 137.013 8.52691 137.968 8.52691Z" fill="white" stroke="white" stroke-width="0.1"/>
<path d="M126.231 8.54889C126.994 8.54889 127.665 8.71092 128.244 9.03723H128.245C128.829 9.36366 129.283 9.8293 129.609 10.4319L129.726 10.6615C129.979 11.2104 130.106 11.8472 130.106 12.5699V20.0268H129.113V12.606C129.113 11.6612 128.832 10.9064 128.272 10.3372C127.718 9.7634 126.983 9.47482 126.063 9.47478C125.447 9.47478 124.899 9.60987 124.42 9.87815C123.941 10.1466 123.565 10.5227 123.291 11.0072C123.018 11.486 122.881 12.0479 122.881 12.6939V20.0268H121.889V8.69539H122.859V10.472H122.865C123.134 9.89583 123.558 9.43205 124.136 9.08216C124.725 8.7258 125.424 8.54889 126.231 8.54889Z" fill="white" stroke="white" stroke-width="0.1"/>
<path d="M114.201 8.52691C114.837 8.52691 115.439 8.65461 116.005 8.91075C116.578 9.16227 117.081 9.5278 117.514 10.0056L117.675 10.1892C118.037 10.6291 118.326 11.1441 118.541 11.7334C118.792 12.4076 118.917 13.1647 118.917 14.0032V14.6087H110.35C110.367 15.4776 110.527 16.2606 110.833 16.9586H110.832C111.16 17.6921 111.628 18.2717 112.234 18.7H112.233C112.838 19.1223 113.564 19.3348 114.413 19.3349C115.022 19.3349 115.539 19.2329 115.964 19.0321C116.398 18.8247 116.751 18.5749 117.024 18.283C117.3 17.988 117.507 17.704 117.645 17.4313L117.666 17.3903L117.709 17.4079L118.52 17.737L118.568 17.7566L118.547 17.8044C118.373 18.186 118.104 18.5659 117.74 18.9442C117.424 19.2729 117.034 19.5541 116.569 19.7871L116.365 19.8838C115.811 20.1359 115.16 20.2608 114.413 20.2608C113.391 20.2607 112.498 20.0082 111.738 19.4999C110.98 18.9924 110.394 18.2969 109.981 17.4167C109.568 16.5365 109.362 15.5349 109.362 14.4124C109.362 13.285 109.568 12.2776 109.981 11.3925C110.399 10.5081 110.972 9.80896 111.701 9.29654C112.432 8.78333 113.266 8.52694 114.201 8.52691ZM114.201 9.46062C113.466 9.46065 112.811 9.66695 112.234 10.0798C111.662 10.4889 111.206 11.043 110.868 11.7431C110.587 12.3348 110.42 12.9858 110.366 13.6965H117.924C117.917 12.9095 117.754 12.2003 117.433 11.5683C117.105 10.9221 116.66 10.4091 116.097 10.0291C115.535 9.6497 114.904 9.46062 114.201 9.46062Z" fill="white" stroke="white" stroke-width="0.1"/>
<path d="M101.958 4.9508C102.871 4.9508 103.644 5.1129 104.277 5.43914C104.909 5.76505 105.39 6.22232 105.716 6.81137C106.048 7.40004 106.213 8.08404 106.213 8.86143C106.213 9.47124 106.115 10.0144 105.917 10.4896C105.719 10.9639 105.442 11.3578 105.085 11.6704V11.6713C104.742 11.9707 104.34 12.1788 103.88 12.2993V12.3052C104.389 12.352 104.863 12.533 105.3 12.8502C105.751 13.1724 106.112 13.6105 106.384 14.1629C106.661 14.717 106.798 15.3611 106.798 16.0938C106.798 16.8664 106.631 17.5504 106.295 18.1438C106.004 18.6598 105.586 19.0785 105.044 19.3998L104.803 19.5317C104.141 19.8627 103.323 20.0268 102.353 20.0268H97.0455V4.9508H101.958ZM98.0593 19.0785H102.353C103.471 19.0785 104.322 18.7976 104.915 18.2434C105.513 17.6881 105.813 16.9731 105.813 16.0938C105.813 15.4733 105.667 14.9192 105.375 14.4305H105.374C105.122 14.0023 104.784 13.653 104.359 13.3825L104.171 13.2711C103.658 12.9834 103.062 12.8385 102.382 12.8385H98.0593V19.0785ZM98.0593 11.9048H102.273C102.904 11.9048 103.435 11.7674 103.87 11.4955L104.03 11.3891C104.392 11.1298 104.674 10.7991 104.876 10.3968L104.958 10.2219C105.138 9.80783 105.228 9.3544 105.228 8.86143C105.228 7.9466 104.945 7.22708 104.381 6.6971C103.818 6.16734 103.013 5.89915 101.958 5.89915H98.0593V11.9048Z" fill="white" stroke="white" stroke-width="0.1"/>
</svg>
